<?xml version="1.0" encoding="UTF-8"?>
<svg id="a" data-name="Layer 1" xmlns="http://www.w3.org/2000/svg" width="1800" height="360" viewBox="0 0 1800 360">
  <path id="b" data-name="O" d="M1728,0h-216C1472.236,0,1440,32.235,1440,72v216c0,39.765,32.236,72,72,72h216c39.765,0,72-32.235,72-72V72C1800,32.235,1767.765,0,1728,0ZM1728,288h-216V72h216v216Z" fill="#fff"/>
  <path id="c" data-name="R" d="M1368,144v-72C1368,32.235,1335.765,0,1296,0h-288v360h72v-144h144l72,144h72l-72-144h0c39.764,0,72-32.235,72-72ZM1296,144h-216v-72h216v72Z" fill="#fff"/>
  <rect id="d" data-name="I" x="864" width="72" height="360" fill="#fff"/>
  <path id="e" data-name="J" d="M720,72h-288V0h360v216c0,79.529-64.471,144-144,144h-216v-72h216c39.765,0,72-32.235,72-72V72" fill="#fff"/>
  <polygon id="f" data-name="A" points="504 144 360 144 360 72 360 0 360 0 288 0 288 0 72 0 72 0 0 0 0 72 0 360 72 360 72 72 288 72 288 144 144 144 144 216 288 216 288 360 360 360 360 216 504 216 504 144" fill="#fff"/>
</svg>